<svg width="65" height="65" fill="none" xmlns="http://www.w3.org/2000/svg"><g clip-path="url(#a)"><path d="M54.085 17.415 32.5 5.417 10.915 17.415l13.73 7.61a10.876 10.876 0 0 1 7.855-3.358c3.087 0 5.877 1.3 7.854 3.358l13.731-7.61ZM27.083 32.5c0-2.98 2.438-5.417 5.417-5.417 2.98 0 5.417 2.438 5.417 5.417 0 2.98-2.438 5.417-5.417 5.417-2.98 0-5.417-2.438-5.417-5.417Zm2.709 25.567L8.125 46.042V22.046l13.894 7.719a10.1 10.1 0 0 0-.352 2.735c0 5.038 3.44 9.29 8.125 10.481v15.086Zm5.416 0V42.98A10.81 10.81 0 0 0 43.333 32.5a10.1 10.1 0 0 0-.352-2.735l13.894-7.72v23.997L35.208 58.067Z" fill="#443B3B"/></g><defs><clipPath id="a"><path fill="#fff" d="M0 0h65v65H0z"/></clipPath></defs></svg>
